<svg width="16" height="16" viewBox="0 0 16 16" fill="none" xmlns="http://www.w3.org/2000/svg">
<path fill-rule="evenodd" clip-rule="evenodd" d="M11.9999 7.33331C11.9999 9.91065 9.91059 12 7.33325 12C4.75593 12 2.66659 9.91065 2.66659 7.33331C2.66659 4.75599 4.75593 2.66665 7.33325 2.66665C9.91059 2.66665 11.9999 4.75599 11.9999 7.33331ZM12.0212 11.0784C12.8423 10.052 13.3333 8.74998 13.3333 7.33331C13.3333 4.01961 10.647 1.33331 7.33325 1.33331C4.01955 1.33331 1.33325 4.01961 1.33325 7.33331C1.33325 10.647 4.01955 13.3333 7.33325 13.3333C8.74992 13.3333 10.0519 12.8423 11.0784 12.0212L12.8619 13.8047C13.1222 14.065 13.5443 14.065 13.8047 13.8047C14.065 13.5444 14.065 13.1222 13.8047 12.8619L12.0212 11.0784Z" fill="#302E45"/>
</svg>
